<?xml version="1.0" encoding="UTF-8"?>
<!DOCTYPE svg PUBLIC "-//W3C//DTD SVG 1.1//EN" "http://www.w3.org/Graphics/SVG/1.1/DTD/svg11.dtd">
<svg width="217mm" height="122mm" viewBox="0 0 21700 12200" version="1.1" xmlns="http://www.w3.org/2000/svg" stroke-width="28.222" stroke-linejoin="round" xml:space="preserve">
 <path fill="rgb(255,255,255)" stroke="none" d="M 10950,12180 L 123,12180 123,0 21777,0 21777,12180 10950,12180 Z"/>
 <path fill="none" stroke="rgb(179,179,179)" stroke-linejoin="round" d="M 9220,11369 L 2136,11369 2136,1561 16303,1561 16303,11369 9220,11369 Z"/>
 <path fill="none" stroke="rgb(179,179,179)" stroke-linejoin="round" d="M 16303,11368 L 2136,11368"/>
 <path fill="none" stroke="rgb(179,179,179)" stroke-linejoin="round" d="M 16303,10387 L 2136,10387"/>
 <path fill="none" stroke="rgb(179,179,179)" stroke-linejoin="round" d="M 16303,9406 L 2136,9406"/>
 <path fill="none" stroke="rgb(179,179,179)" stroke-linejoin="round" d="M 16303,8425 L 2136,8425"/>
 <path fill="none" stroke="rgb(179,179,179)" stroke-linejoin="round" d="M 16303,7444 L 2136,7444"/>
 <path fill="none" stroke="rgb(179,179,179)" stroke-linejoin="round" d="M 16303,6463 L 2136,6463"/>
 <path fill="none" stroke="rgb(179,179,179)" stroke-linejoin="round" d="M 16303,5483 L 2136,5483"/>
 <path fill="none" stroke="rgb(179,179,179)" stroke-linejoin="round" d="M 16303,4502 L 2136,4502"/>
 <path fill="none" stroke="rgb(179,179,179)" stroke-linejoin="round" d="M 16303,3521 L 2136,3521"/>
 <path fill="none" stroke="rgb(179,179,179)" stroke-linejoin="round" d="M 16303,2540 L 2136,2540"/>
 <path fill="none" stroke="rgb(179,179,179)" stroke-linejoin="round" d="M 16303,1560 L 2136,1560"/>
 <path fill="none" stroke="rgb(179,179,179)" stroke-linejoin="round" d="M 2136,11518 L 2136,11368"/>
 <path fill="none" stroke="rgb(179,179,179)" stroke-linejoin="round" d="M 2136,11518 L 2136,11368"/>
 <path fill="none" stroke="rgb(179,179,179)" stroke-linejoin="round" d="M 6858,11518 L 6858,11368"/>
 <path fill="none" stroke="rgb(179,179,179)" stroke-linejoin="round" d="M 6858,11518 L 6858,11368"/>
 <path fill="none" stroke="rgb(179,179,179)" stroke-linejoin="round" d="M 11580,11518 L 11580,11368"/>
 <path fill="none" stroke="rgb(179,179,179)" stroke-linejoin="round" d="M 11580,11518 L 11580,11368"/>
 <path fill="none" stroke="rgb(179,179,179)" stroke-linejoin="round" d="M 16303,11518 L 16303,11368"/>
 <path fill="none" stroke="rgb(179,179,179)" stroke-linejoin="round" d="M 16303,11518 L 16303,11368"/>
 <path fill="none" stroke="rgb(179,179,179)" stroke-linejoin="round" d="M 2136,11368 L 16303,11368"/>
 <path fill="none" stroke="rgb(179,179,179)" stroke-linejoin="round" d="M 1986,11368 L 2136,11368"/>
 <path fill="none" stroke="rgb(179,179,179)" stroke-linejoin="round" d="M 1986,11368 L 2136,11368"/>
 <path fill="none" stroke="rgb(179,179,179)" stroke-linejoin="round" d="M 1986,10387 L 2136,10387"/>
 <path fill="none" stroke="rgb(179,179,179)" stroke-linejoin="round" d="M 1986,10387 L 2136,10387"/>
 <path fill="none" stroke="rgb(179,179,179)" stroke-linejoin="round" d="M 1986,9406 L 2136,9406"/>
 <path fill="none" stroke="rgb(179,179,179)" stroke-linejoin="round" d="M 1986,9406 L 2136,9406"/>
 <path fill="none" stroke="rgb(179,179,179)" stroke-linejoin="round" d="M 1986,8425 L 2136,8425"/>
 <path fill="none" stroke="rgb(179,179,179)" stroke-linejoin="round" d="M 1986,8425 L 2136,8425"/>
 <path fill="none" stroke="rgb(179,179,179)" stroke-linejoin="round" d="M 1986,7444 L 2136,7444"/>
 <path fill="none" stroke="rgb(179,179,179)" stroke-linejoin="round" d="M 1986,7444 L 2136,7444"/>
 <path fill="none" stroke="rgb(179,179,179)" stroke-linejoin="round" d="M 1986,6463 L 2136,6463"/>
 <path fill="none" stroke="rgb(179,179,179)" stroke-linejoin="round" d="M 1986,6463 L 2136,6463"/>
 <path fill="none" stroke="rgb(179,179,179)" stroke-linejoin="round" d="M 1986,5483 L 2136,5483"/>
 <path fill="none" stroke="rgb(179,179,179)" stroke-linejoin="round" d="M 1986,5483 L 2136,5483"/>
 <path fill="none" stroke="rgb(179,179,179)" stroke-linejoin="round" d="M 1986,4502 L 2136,4502"/>
 <path fill="none" stroke="rgb(179,179,179)" stroke-linejoin="round" d="M 1986,4502 L 2136,4502"/>
 <path fill="none" stroke="rgb(179,179,179)" stroke-linejoin="round" d="M 1986,3521 L 2136,3521"/>
 <path fill="none" stroke="rgb(179,179,179)" stroke-linejoin="round" d="M 1986,3521 L 2136,3521"/>
 <path fill="none" stroke="rgb(179,179,179)" stroke-linejoin="round" d="M 1986,2540 L 2136,2540"/>
 <path fill="none" stroke="rgb(179,179,179)" stroke-linejoin="round" d="M 1986,2540 L 2136,2540"/>
 <path fill="none" stroke="rgb(179,179,179)" stroke-linejoin="round" d="M 1986,1560 L 2136,1560"/>
 <path fill="none" stroke="rgb(179,179,179)" stroke-linejoin="round" d="M 1986,1560 L 2136,1560"/>
 <path fill="none" stroke="rgb(179,179,179)" stroke-linejoin="round" d="M 2136,11368 L 2136,1560"/>
 <path fill="rgb(0,69,134)" stroke="none" d="M 11973,11368 L 12761,11368 12761,5081 11973,5081 11973,11368 Z"/>
 <path fill="rgb(255,66,14)" stroke="none" d="M 12761,11368 L 13548,11368 13548,11309 12761,11309 12761,11368 Z"/>
 <path fill="rgb(255,66,14)" stroke="none" d="M 3316,11368 L 4103,11368 4103,2442 3316,2442 3316,11368 Z"/>
 <path fill="rgb(255,211,32)" stroke="none" d="M 13548,11368 L 14335,11368 14335,11122 13548,11122 13548,11368 Z"/>
 <path fill="rgb(255,211,32)" stroke="none" d="M 4103,11368 L 4890,11368 4890,2933 4103,2933 4103,11368 Z"/>
 <path fill="rgb(87,157,28)" stroke="none" d="M 14335,11368 L 15122,11368 15122,3914 14335,3914 14335,11368 Z"/>
 <path fill="rgb(87,157,28)" stroke="none" d="M 9613,11368 L 10400,11368 10400,2638 9613,2638 9613,11368 Z"/>
 <path fill="rgb(87,157,28)" stroke="none" d="M 4890,11368 L 5677,11368 5677,2638 4890,2638 4890,11368 Z"/>
 <path fill="rgb(126,0,33)" stroke="none" d="M 15122,11368 L 15909,11368 15909,11342 15122,11342 15122,11368 Z"/>
 <path fill="rgb(126,0,33)" stroke="none" d="M 10400,11368 L 11186,11368 11186,2835 10400,2835 10400,11368 Z"/>
 <path fill="rgb(126,0,33)" stroke="none" d="M 5678,11368 L 6465,11368 6465,2638 5678,2638 5678,11368 Z"/>
 <text class="TextShape"><tspan class="TextParagraph" font-family="Liberation Sans, sans-serif" font-size="353px" font-weight="400"><tspan class="TextPosition" x="2684" y="11856"><tspan fill="rgb(0,0,0)" stroke="none">creating data structures</tspan></tspan></tspan></text>
 <text class="TextShape"><tspan class="TextParagraph" font-family="Liberation Sans, sans-serif" font-size="353px" font-weight="400"><tspan class="TextPosition" x="8373" y="11856"><tspan fill="rgb(0,0,0)" stroke="none">preprocess</tspan></tspan></tspan></text>
 <text class="TextShape"><tspan class="TextParagraph" font-family="Liberation Sans, sans-serif" font-size="353px" font-weight="400"><tspan class="TextPosition" x="12725" y="11856"><tspan fill="rgb(0,0,0)" stroke="none">executing query</tspan></tspan></tspan></text>
 <text class="TextShape"><tspan class="TextParagraph" font-family="Liberation Sans, sans-serif" font-size="353px" font-weight="400"><tspan class="TextPosition" x="1701" y="11448"><tspan fill="rgb(0,0,0)" stroke="none">0</tspan></tspan></tspan></text>
 <text class="TextShape"><tspan class="TextParagraph" font-family="Liberation Sans, sans-serif" font-size="353px" font-weight="400"><tspan class="TextPosition" x="1701" y="10467"><tspan fill="rgb(0,0,0)" stroke="none">1</tspan></tspan></tspan></text>
 <text class="TextShape"><tspan class="TextParagraph" font-family="Liberation Sans, sans-serif" font-size="353px" font-weight="400"><tspan class="TextPosition" x="1701" y="9486"><tspan fill="rgb(0,0,0)" stroke="none">2</tspan></tspan></tspan></text>
 <text class="TextShape"><tspan class="TextParagraph" font-family="Liberation Sans, sans-serif" font-size="353px" font-weight="400"><tspan class="TextPosition" x="1701" y="8505"><tspan fill="rgb(0,0,0)" stroke="none">3</tspan></tspan></tspan></text>
 <text class="TextShape"><tspan class="TextParagraph" font-family="Liberation Sans, sans-serif" font-size="353px" font-weight="400"><tspan class="TextPosition" x="1701" y="7524"><tspan fill="rgb(0,0,0)" stroke="none">4</tspan></tspan></tspan></text>
 <text class="TextShape"><tspan class="TextParagraph" font-family="Liberation Sans, sans-serif" font-size="353px" font-weight="400"><tspan class="TextPosition" x="1701" y="6543"><tspan fill="rgb(0,0,0)" stroke="none">5</tspan></tspan></tspan></text>
 <text class="TextShape"><tspan class="TextParagraph" font-family="Liberation Sans, sans-serif" font-size="353px" font-weight="400"><tspan class="TextPosition" x="1701" y="5562"><tspan fill="rgb(0,0,0)" stroke="none">6</tspan></tspan></tspan></text>
 <text class="TextShape"><tspan class="TextParagraph" font-family="Liberation Sans, sans-serif" font-size="353px" font-weight="400"><tspan class="TextPosition" x="1701" y="4581"><tspan fill="rgb(0,0,0)" stroke="none">7</tspan></tspan></tspan></text>
 <text class="TextShape"><tspan class="TextParagraph" font-family="Liberation Sans, sans-serif" font-size="353px" font-weight="400"><tspan class="TextPosition" x="1701" y="3600"><tspan fill="rgb(0,0,0)" stroke="none">8</tspan></tspan></tspan></text>
 <text class="TextShape"><tspan class="TextParagraph" font-family="Liberation Sans, sans-serif" font-size="353px" font-weight="400"><tspan class="TextPosition" x="1701" y="2619"><tspan fill="rgb(0,0,0)" stroke="none">9</tspan></tspan></tspan></text>
 <text class="TextShape"><tspan class="TextParagraph" font-family="Liberation Sans, sans-serif" font-size="353px" font-weight="400"><tspan class="TextPosition" x="1516" y="1639"><tspan fill="rgb(0,0,0)" stroke="none">10</tspan></tspan></tspan></text>
 <text class="TextShape"><tspan class="TextParagraph" font-family="Linux Libertine O" font-size="459px" font-weight="400"><tspan class="TextPosition" x="7920" y="914"><tspan fill="rgb(0,0,0)" stroke="none">Execution times for scale factor 1</tspan></tspan></tspan></text>
 <path fill="rgb(0,69,134)" stroke="none" d="M 16958,5199 L 16852,5199 16852,4988 17063,4988 17063,5199 16958,5199 Z"/>
 <path fill="rgb(255,66,14)" stroke="none" d="M 16958,5697 L 16852,5697 16852,5486 17063,5486 17063,5697 16958,5697 Z"/>
 <path fill="rgb(255,211,32)" stroke="none" d="M 16958,6194 L 16852,6194 16852,5984 17063,5984 17063,6194 16958,6194 Z"/>
 <path fill="rgb(87,157,28)" stroke="none" d="M 16958,6692 L 16852,6692 16852,6481 17063,6481 17063,6692 16958,6692 Z"/>
 <path fill="rgb(126,0,33)" stroke="none" d="M 16958,7190 L 16852,7190 16852,6979 17063,6979 17063,7190 16958,7190 Z"/>
 <text class="TextShape"><tspan class="TextParagraph" font-family="Linux Libertine O" font-size="353px" font-weight="400"><tspan class="TextPosition" x="17163" y="5213"><tspan fill="rgb(0,0,0)" stroke="none">linear_iteration_without_save</tspan></tspan></tspan></text>
 <text class="TextShape"><tspan class="TextParagraph" font-family="Linux Libertine O" font-size="353px" font-weight="400"><tspan class="TextPosition" x="17163" y="5711"><tspan fill="rgb(0,0,0)" stroke="none">linear_iteration_with_save</tspan></tspan></tspan></text>
 <text class="TextShape"><tspan class="TextParagraph" font-family="Linux Libertine O" font-size="353px" font-weight="400"><tspan class="TextPosition" x="17163" y="6208"><tspan fill="rgb(0,0,0)" stroke="none">simple_random</tspan></tspan></tspan></text>
 <text class="TextShape"><tspan class="TextParagraph" font-family="Linux Libertine O" font-size="353px" font-weight="400"><tspan class="TextPosition" x="17163" y="6706"><tspan fill="rgb(0,0,0)" stroke="none">simple_hist</tspan></tspan></tspan></text>
 <text class="TextShape"><tspan class="TextParagraph" font-family="Linux Libertine O" font-size="353px" font-weight="400"><tspan class="TextPosition" x="17163" y="7204"><tspan fill="rgb(0,0,0)" stroke="none">enhanced hist</tspan></tspan></tspan></text>
 <text class="TextShape" transform="translate(907,7158) rotate(-90) translate(-907,-7158)"><tspan class="TextParagraph" font-family="Liberation Sans, sans-serif" font-size="318px" font-weight="400"><tspan class="TextPosition" x="907" y="7158"><tspan fill="rgb(0,0,0)" stroke="none">time(s)</tspan></tspan></tspan></text>
</svg>