<?xml version="1.0" encoding="UTF-8"?>
<!DOCTYPE svg PUBLIC "-//W3C//DTD SVG 1.1//EN" "http://www.w3.org/Graphics/SVG/1.1/DTD/svg11.dtd">
<svg width="217mm" height="122mm" viewBox="0 0 21700 12200" version="1.1" xmlns="http://www.w3.org/2000/svg" stroke-width="28.222" stroke-linejoin="round" xml:space="preserve">
 <path fill="rgb(255,255,255)" stroke="none" d="M 10950,12180 L 123,12180 123,0 21777,0 21777,12180 10950,12180 Z"/>
 <path fill="none" stroke="rgb(179,179,179)" stroke-linejoin="round" d="M 9313,11369 L 2322,11369 2322,1561 16303,1561 16303,11369 9313,11369 Z"/>
 <path fill="none" stroke="rgb(179,179,179)" stroke-linejoin="round" d="M 16303,11368 L 2322,11368"/>
 <path fill="none" stroke="rgb(179,179,179)" stroke-linejoin="round" d="M 16303,9406 L 2322,9406"/>
 <path fill="none" stroke="rgb(179,179,179)" stroke-linejoin="round" d="M 16303,7444 L 2322,7444"/>
 <path fill="none" stroke="rgb(179,179,179)" stroke-linejoin="round" d="M 16303,5483 L 2322,5483"/>
 <path fill="none" stroke="rgb(179,179,179)" stroke-linejoin="round" d="M 16303,3521 L 2322,3521"/>
 <path fill="none" stroke="rgb(179,179,179)" stroke-linejoin="round" d="M 16303,1560 L 2322,1560"/>
 <path fill="none" stroke="rgb(179,179,179)" stroke-linejoin="round" d="M 2322,11518 L 2322,11368"/>
 <path fill="none" stroke="rgb(179,179,179)" stroke-linejoin="round" d="M 2322,11518 L 2322,11368"/>
 <path fill="none" stroke="rgb(179,179,179)" stroke-linejoin="round" d="M 6982,11518 L 6982,11368"/>
 <path fill="none" stroke="rgb(179,179,179)" stroke-linejoin="round" d="M 6982,11518 L 6982,11368"/>
 <path fill="none" stroke="rgb(179,179,179)" stroke-linejoin="round" d="M 11642,11518 L 11642,11368"/>
 <path fill="none" stroke="rgb(179,179,179)" stroke-linejoin="round" d="M 11642,11518 L 11642,11368"/>
 <path fill="none" stroke="rgb(179,179,179)" stroke-linejoin="round" d="M 16303,11518 L 16303,11368"/>
 <path fill="none" stroke="rgb(179,179,179)" stroke-linejoin="round" d="M 16303,11518 L 16303,11368"/>
 <path fill="none" stroke="rgb(179,179,179)" stroke-linejoin="round" d="M 2322,11368 L 16303,11368"/>
 <path fill="none" stroke="rgb(179,179,179)" stroke-linejoin="round" d="M 2172,11368 L 2322,11368"/>
 <path fill="none" stroke="rgb(179,179,179)" stroke-linejoin="round" d="M 2172,11368 L 2322,11368"/>
 <path fill="none" stroke="rgb(179,179,179)" stroke-linejoin="round" d="M 2172,9406 L 2322,9406"/>
 <path fill="none" stroke="rgb(179,179,179)" stroke-linejoin="round" d="M 2172,9406 L 2322,9406"/>
 <path fill="none" stroke="rgb(179,179,179)" stroke-linejoin="round" d="M 2172,7444 L 2322,7444"/>
 <path fill="none" stroke="rgb(179,179,179)" stroke-linejoin="round" d="M 2172,7444 L 2322,7444"/>
 <path fill="none" stroke="rgb(179,179,179)" stroke-linejoin="round" d="M 2172,5483 L 2322,5483"/>
 <path fill="none" stroke="rgb(179,179,179)" stroke-linejoin="round" d="M 2172,5483 L 2322,5483"/>
 <path fill="none" stroke="rgb(179,179,179)" stroke-linejoin="round" d="M 2172,3521 L 2322,3521"/>
 <path fill="none" stroke="rgb(179,179,179)" stroke-linejoin="round" d="M 2172,3521 L 2322,3521"/>
 <path fill="none" stroke="rgb(179,179,179)" stroke-linejoin="round" d="M 2172,1560 L 2322,1560"/>
 <path fill="none" stroke="rgb(179,179,179)" stroke-linejoin="round" d="M 2172,1560 L 2322,1560"/>
 <path fill="none" stroke="rgb(179,179,179)" stroke-linejoin="round" d="M 2322,11368 L 2322,1560"/>
 <path fill="rgb(0,69,134)" stroke="none" d="M 12030,11368 L 12807,11368 12807,6027 12030,6027 12030,11368 Z"/>
 <path fill="rgb(255,66,14)" stroke="none" d="M 12807,11368 L 13584,11368 13584,11318 12807,11318 12807,11368 Z"/>
 <path fill="rgb(255,66,14)" stroke="none" d="M 3487,11368 L 4263,11368 4263,4200 3487,4200 3487,11368 Z"/>
 <path fill="rgb(255,211,32)" stroke="none" d="M 13584,11368 L 14361,11368 14361,11167 13584,11167 13584,11368 Z"/>
 <path fill="rgb(255,211,32)" stroke="none" d="M 4263,11368 L 5040,11368 5040,4483 4263,4483 4263,11368 Z"/>
 <path fill="rgb(87,157,28)" stroke="none" d="M 14361,11368 L 15137,11368 15137,5263 14361,5263 14361,11368 Z"/>
 <path fill="rgb(87,157,28)" stroke="none" d="M 9701,11368 L 10478,11368 10478,2815 9701,2815 9701,11368 Z"/>
 <path fill="rgb(87,157,28)" stroke="none" d="M 5040,11368 L 5817,11368 5817,4179 5040,4179 5040,11368 Z"/>
 <path fill="rgb(126,0,33)" stroke="none" d="M 15137,11368 L 15914,11368 15914,11340 15137,11340 15137,11368 Z"/>
 <path fill="rgb(126,0,33)" stroke="none" d="M 10478,11368 L 11253,11368 11253,3203 10478,3203 10478,11368 Z"/>
 <path fill="rgb(126,0,33)" stroke="none" d="M 5817,11368 L 6594,11368 6594,4337 5817,4337 5817,11368 Z"/>
 <text class="TextShape"><tspan class="TextParagraph" font-family="Liberation Sans, sans-serif" font-size="353px" font-weight="400"><tspan class="TextPosition" x="2839" y="11856"><tspan fill="rgb(0,0,0)" stroke="none">creating data structures</tspan></tspan></tspan></text>
 <text class="TextShape"><tspan class="TextParagraph" font-family="Liberation Sans, sans-serif" font-size="353px" font-weight="400"><tspan class="TextPosition" x="8466" y="11856"><tspan fill="rgb(0,0,0)" stroke="none">preprocess</tspan></tspan></tspan></text>
 <text class="TextShape"><tspan class="TextParagraph" font-family="Liberation Sans, sans-serif" font-size="353px" font-weight="400"><tspan class="TextPosition" x="12756" y="11856"><tspan fill="rgb(0,0,0)" stroke="none">executing query</tspan></tspan></tspan></text>
 <text class="TextShape"><tspan class="TextParagraph" font-family="Liberation Sans, sans-serif" font-size="353px" font-weight="400"><tspan class="TextPosition" x="1887" y="11448"><tspan fill="rgb(0,0,0)" stroke="none">0</tspan></tspan></tspan></text>
 <text class="TextShape"><tspan class="TextParagraph" font-family="Liberation Sans, sans-serif" font-size="353px" font-weight="400"><tspan class="TextPosition" x="1702" y="9486"><tspan fill="rgb(0,0,0)" stroke="none">50</tspan></tspan></tspan></text>
 <text class="TextShape"><tspan class="TextParagraph" font-family="Liberation Sans, sans-serif" font-size="353px" font-weight="400"><tspan class="TextPosition" x="1516" y="7524"><tspan fill="rgb(0,0,0)" stroke="none">100</tspan></tspan></tspan></text>
 <text class="TextShape"><tspan class="TextParagraph" font-family="Liberation Sans, sans-serif" font-size="353px" font-weight="400"><tspan class="TextPosition" x="1516" y="5562"><tspan fill="rgb(0,0,0)" stroke="none">150</tspan></tspan></tspan></text>
 <text class="TextShape"><tspan class="TextParagraph" font-family="Liberation Sans, sans-serif" font-size="353px" font-weight="400"><tspan class="TextPosition" x="1516" y="3600"><tspan fill="rgb(0,0,0)" stroke="none">200</tspan></tspan></tspan></text>
 <text class="TextShape"><tspan class="TextParagraph" font-family="Liberation Sans, sans-serif" font-size="353px" font-weight="400"><tspan class="TextPosition" x="1516" y="1639"><tspan fill="rgb(0,0,0)" stroke="none">250</tspan></tspan></tspan></text>
 <text class="TextShape"><tspan class="TextParagraph" font-family="Linux Libertine O" font-size="459px" font-weight="400"><tspan class="TextPosition" x="7814" y="914"><tspan fill="rgb(0,0,0)" stroke="none">Execution times for scale factor 20</tspan></tspan></tspan></text>
 <path fill="rgb(0,69,134)" stroke="none" d="M 16958,5199 L 16852,5199 16852,4988 17063,4988 17063,5199 16958,5199 Z"/>
 <path fill="rgb(255,66,14)" stroke="none" d="M 16958,5697 L 16852,5697 16852,5486 17063,5486 17063,5697 16958,5697 Z"/>
 <path fill="rgb(255,211,32)" stroke="none" d="M 16958,6194 L 16852,6194 16852,5984 17063,5984 17063,6194 16958,6194 Z"/>
 <path fill="rgb(87,157,28)" stroke="none" d="M 16958,6692 L 16852,6692 16852,6481 17063,6481 17063,6692 16958,6692 Z"/>
 <path fill="rgb(126,0,33)" stroke="none" d="M 16958,7190 L 16852,7190 16852,6979 17063,6979 17063,7190 16958,7190 Z"/>
 <text class="TextShape"><tspan class="TextParagraph" font-family="Linux Libertine O" font-size="353px" font-weight="400"><tspan class="TextPosition" x="17163" y="5213"><tspan fill="rgb(0,0,0)" stroke="none">linear_iteration_without_save</tspan></tspan></tspan></text>
 <text class="TextShape"><tspan class="TextParagraph" font-family="Linux Libertine O" font-size="353px" font-weight="400"><tspan class="TextPosition" x="17163" y="5711"><tspan fill="rgb(0,0,0)" stroke="none">linear_iteration_with_save</tspan></tspan></tspan></text>
 <text class="TextShape"><tspan class="TextParagraph" font-family="Linux Libertine O" font-size="353px" font-weight="400"><tspan class="TextPosition" x="17163" y="6208"><tspan fill="rgb(0,0,0)" stroke="none">simple_random</tspan></tspan></tspan></text>
 <text class="TextShape"><tspan class="TextParagraph" font-family="Linux Libertine O" font-size="353px" font-weight="400"><tspan class="TextPosition" x="17163" y="6706"><tspan fill="rgb(0,0,0)" stroke="none">simple_hist</tspan></tspan></tspan></text>
 <text class="TextShape"><tspan class="TextParagraph" font-family="Linux Libertine O" font-size="353px" font-weight="400"><tspan class="TextPosition" x="17163" y="7204"><tspan fill="rgb(0,0,0)" stroke="none">enhanced hist</tspan></tspan></tspan></text>
 <text class="TextShape" transform="translate(907,7158) rotate(-90) translate(-907,-7158)"><tspan class="TextParagraph" font-family="Liberation Sans, sans-serif" font-size="318px" font-weight="400"><tspan class="TextPosition" x="907" y="7158"><tspan fill="rgb(0,0,0)" stroke="none">time(s)</tspan></tspan></tspan></text>
</svg>