<?xml version="1.0" encoding="UTF-8"?>
<!DOCTYPE svg PUBLIC "-//W3C//DTD SVG 1.1//EN" "http://www.w3.org/Graphics/SVG/1.1/DTD/svg11.dtd">
<svg width="229mm" height="90mm" viewBox="0 0 22900 9000" version="1.1" xmlns="http://www.w3.org/2000/svg" stroke-width="28.222" stroke-linejoin="round" xml:space="preserve">
 <path fill="rgb(255,255,255)" stroke="none" d="M 11422,9005 L -30,9005 -30,0 22874,0 22874,9005 11422,9005 Z"/>
 <path fill="none" stroke="rgb(245,130,32)" stroke-linejoin="round" d="M 11422,9005 L -30,9005 -30,0 22874,0 22874,9005 11422,9005 Z"/>
 <path fill="none" stroke="rgb(179,179,179)" stroke-linejoin="round" d="M 10069,4299 L 2921,4299 2921,1275 17216,1275 17216,4299 10069,4299 Z"/>
 <path fill="none" stroke="rgb(179,179,179)" stroke-linejoin="round" d="M 17215,4298 L 2921,4298"/>
 <path fill="none" stroke="rgb(179,179,179)" stroke-linejoin="round" d="M 17215,3794 L 2921,3794"/>
 <path fill="none" stroke="rgb(179,179,179)" stroke-linejoin="round" d="M 17215,3290 L 2921,3290"/>
 <path fill="none" stroke="rgb(179,179,179)" stroke-linejoin="round" d="M 17215,2786 L 2921,2786"/>
 <path fill="none" stroke="rgb(179,179,179)" stroke-linejoin="round" d="M 17215,2282 L 2921,2282"/>
 <path fill="none" stroke="rgb(179,179,179)" stroke-linejoin="round" d="M 17215,1778 L 2921,1778"/>
 <path fill="none" stroke="rgb(179,179,179)" stroke-linejoin="round" d="M 17215,1274 L 2921,1274"/>
 <path fill="none" stroke="rgb(179,179,179)" stroke-linejoin="round" d="M 2921,4448 L 2921,4298"/>
 <path fill="none" stroke="rgb(179,179,179)" stroke-linejoin="round" d="M 2921,4448 L 2921,4298"/>
 <path fill="none" stroke="rgb(179,179,179)" stroke-linejoin="round" d="M 5780,4448 L 5780,4298"/>
 <path fill="none" stroke="rgb(179,179,179)" stroke-linejoin="round" d="M 5780,4448 L 5780,4298"/>
 <path fill="none" stroke="rgb(179,179,179)" stroke-linejoin="round" d="M 8639,4448 L 8639,4298"/>
 <path fill="none" stroke="rgb(179,179,179)" stroke-linejoin="round" d="M 8639,4448 L 8639,4298"/>
 <path fill="none" stroke="rgb(179,179,179)" stroke-linejoin="round" d="M 11497,4448 L 11497,4298"/>
 <path fill="none" stroke="rgb(179,179,179)" stroke-linejoin="round" d="M 11497,4448 L 11497,4298"/>
 <path fill="none" stroke="rgb(179,179,179)" stroke-linejoin="round" d="M 14356,4448 L 14356,4298"/>
 <path fill="none" stroke="rgb(179,179,179)" stroke-linejoin="round" d="M 14356,4448 L 14356,4298"/>
 <path fill="none" stroke="rgb(179,179,179)" stroke-linejoin="round" d="M 17215,4448 L 17215,4298"/>
 <path fill="none" stroke="rgb(179,179,179)" stroke-linejoin="round" d="M 17215,4448 L 17215,4298"/>
 <path fill="none" stroke="rgb(179,179,179)" stroke-linejoin="round" d="M 2921,4298 L 17215,4298"/>
 <path fill="none" stroke="rgb(179,179,179)" stroke-linejoin="round" d="M 2771,4298 L 2921,4298"/>
 <path fill="none" stroke="rgb(179,179,179)" stroke-linejoin="round" d="M 2771,4298 L 2921,4298"/>
 <path fill="none" stroke="rgb(179,179,179)" stroke-linejoin="round" d="M 2771,3794 L 2921,3794"/>
 <path fill="none" stroke="rgb(179,179,179)" stroke-linejoin="round" d="M 2771,3794 L 2921,3794"/>
 <path fill="none" stroke="rgb(179,179,179)" stroke-linejoin="round" d="M 2771,3290 L 2921,3290"/>
 <path fill="none" stroke="rgb(179,179,179)" stroke-linejoin="round" d="M 2771,3290 L 2921,3290"/>
 <path fill="none" stroke="rgb(179,179,179)" stroke-linejoin="round" d="M 2771,2786 L 2921,2786"/>
 <path fill="none" stroke="rgb(179,179,179)" stroke-linejoin="round" d="M 2771,2786 L 2921,2786"/>
 <path fill="none" stroke="rgb(179,179,179)" stroke-linejoin="round" d="M 2771,2282 L 2921,2282"/>
 <path fill="none" stroke="rgb(179,179,179)" stroke-linejoin="round" d="M 2771,2282 L 2921,2282"/>
 <path fill="none" stroke="rgb(179,179,179)" stroke-linejoin="round" d="M 2771,1778 L 2921,1778"/>
 <path fill="none" stroke="rgb(179,179,179)" stroke-linejoin="round" d="M 2771,1778 L 2921,1778"/>
 <path fill="none" stroke="rgb(179,179,179)" stroke-linejoin="round" d="M 2771,1274 L 2921,1274"/>
 <path fill="none" stroke="rgb(179,179,179)" stroke-linejoin="round" d="M 2771,1274 L 2921,1274"/>
 <path fill="none" stroke="rgb(179,179,179)" stroke-linejoin="round" d="M 2921,4298 L 2921,1274"/>
 <path fill="rgb(0,69,134)" stroke="none" d="M 15071,4298 L 16501,4298 16501,3394 15071,3394 15071,4298 Z"/>
 <path fill="rgb(0,69,134)" stroke="none" d="M 12212,4298 L 13642,4298 13642,3374 12212,3374 12212,4298 Z"/>
 <path fill="rgb(0,69,134)" stroke="none" d="M 9354,4298 L 10783,4298 10783,3413 9354,3413 9354,4298 Z"/>
 <path fill="rgb(0,69,134)" stroke="none" d="M 6495,4298 L 7924,4298 7924,3377 6495,3377 6495,4298 Z"/>
 <path fill="rgb(255,66,14)" stroke="none" d="M 15071,3394 L 16501,3394 16501,2346 15071,2346 15071,3394 Z"/>
 <path fill="rgb(255,66,14)" stroke="none" d="M 12212,3374 L 13642,3374 13642,2275 12212,2275 12212,3374 Z"/>
 <path fill="rgb(255,211,32)" stroke="none" d="M 15071,2346 L 16501,2346 16501,2342 15071,2342 15071,2346 Z"/>
 <path fill="rgb(255,211,32)" stroke="none" d="M 12212,2275 L 13642,2275 13642,1491 12212,1491 12212,2275 Z"/>
 <path fill="rgb(255,211,32)" stroke="none" d="M 9354,3413 L 10783,3413 10783,3387 9354,3387 9354,3413 Z"/>
 <path fill="rgb(255,211,32)" stroke="none" d="M 6495,3377 L 7924,3377 7924,3370 6495,3370 6495,3377 Z"/>
 <path fill="rgb(255,211,32)" stroke="none" d="M 3635,4298 L 5065,4298 5065,3611 3635,3611 3635,4298 Z"/>
 <text class="TextShape" transform="translate(635,8587) rotate(-44.9) translate(-635,-8587)"><tspan class="TextParagraph" font-family="LM Mono Light 10, monospace" font-size="353px" font-weight="400"><tspan class="TextPosition" x="635" y="8587"><tspan fill="rgb(0,0,0)" stroke="none">linear_iteration_without_save</tspan></tspan></tspan></text>
 <text class="TextShape" transform="translate(3887,8196) rotate(-44.9) translate(-3887,-8196)"><tspan class="TextParagraph" font-family="LM Mono Light 10, monospace" font-size="353px" font-weight="400"><tspan class="TextPosition" x="3887" y="8196"><tspan fill="rgb(0,0,0)" stroke="none">linear_iteration_with_save</tspan></tspan></tspan></text>
 <text class="TextShape" transform="translate(8448,6493) rotate(-44.9) translate(-8448,-6493)"><tspan class="TextParagraph" font-family="LM Mono Light 10, monospace" font-size="353px" font-weight="400"><tspan class="TextPosition" x="8448" y="6493"><tspan fill="rgb(0,0,0)" stroke="none">simple_random</tspan></tspan></tspan></text>
 <text class="TextShape" transform="translate(11569,6231) rotate(-44.9) translate(-11569,-6231)"><tspan class="TextParagraph" font-family="LM Mono Light 10, monospace" font-size="353px" font-weight="400"><tspan class="TextPosition" x="11569" y="6231"><tspan fill="rgb(0,0,0)" stroke="none">simple_hist</tspan></tspan></tspan></text>
 <text class="TextShape" transform="translate(14167,6493) rotate(-44.9) translate(-14167,-6493)"><tspan class="TextParagraph" font-family="LM Mono Light 10, monospace" font-size="353px" font-weight="400"><tspan class="TextPosition" x="14167" y="6493"><tspan fill="rgb(0,0,0)" stroke="none">enhanced hist</tspan></tspan></tspan></text>
 <text class="TextShape"><tspan class="TextParagraph" font-family="Liberation Sans, sans-serif" font-size="353px" font-weight="400"><tspan class="TextPosition" x="2486" y="4377"><tspan fill="rgb(0,0,0)" stroke="none">0</tspan></tspan></tspan></text>
 <text class="TextShape"><tspan class="TextParagraph" font-family="Liberation Sans, sans-serif" font-size="353px" font-weight="400"><tspan class="TextPosition" x="2115" y="3873"><tspan fill="rgb(0,0,0)" stroke="none">100</tspan></tspan></tspan></text>
 <text class="TextShape"><tspan class="TextParagraph" font-family="Liberation Sans, sans-serif" font-size="353px" font-weight="400"><tspan class="TextPosition" x="2115" y="3369"><tspan fill="rgb(0,0,0)" stroke="none">200</tspan></tspan></tspan></text>
 <text class="TextShape"><tspan class="TextParagraph" font-family="Liberation Sans, sans-serif" font-size="353px" font-weight="400"><tspan class="TextPosition" x="2115" y="2865"><tspan fill="rgb(0,0,0)" stroke="none">300</tspan></tspan></tspan></text>
 <text class="TextShape"><tspan class="TextParagraph" font-family="Liberation Sans, sans-serif" font-size="353px" font-weight="400"><tspan class="TextPosition" x="2115" y="2361"><tspan fill="rgb(0,0,0)" stroke="none">400</tspan></tspan></tspan></text>
 <text class="TextShape"><tspan class="TextParagraph" font-family="Liberation Sans, sans-serif" font-size="353px" font-weight="400"><tspan class="TextPosition" x="2115" y="1858"><tspan fill="rgb(0,0,0)" stroke="none">500</tspan></tspan></tspan></text>
 <text class="TextShape"><tspan class="TextParagraph" font-family="Liberation Sans, sans-serif" font-size="353px" font-weight="400"><tspan class="TextPosition" x="2115" y="1354"><tspan fill="rgb(0,0,0)" stroke="none">600</tspan></tspan></tspan></text>
 <text class="TextShape"><tspan class="TextParagraph" font-family="Linux Libertine O" font-size="459px" font-weight="400"><tspan class="TextPosition" x="8286" y="852"><tspan fill="rgb(0,0,0)" stroke="none">Execution times for scale factor 20</tspan></tspan></tspan></text>
 <path fill="rgb(0,69,134)" stroke="none" d="M 17895,5158 L 17790,5158 17790,4947 18001,4947 18001,5158 17895,5158 Z"/>
 <path fill="rgb(255,66,14)" stroke="none" d="M 17895,4607 L 17790,4607 17790,4397 18001,4397 18001,4607 17895,4607 Z"/>
 <path fill="rgb(255,211,32)" stroke="none" d="M 17895,4057 L 17790,4057 17790,3846 18001,3846 18001,4057 17895,4057 Z"/>
 <text class="TextShape"><tspan class="TextParagraph" font-family="LM Mono Light 10, monospace" font-size="353px" font-weight="400"><tspan class="TextPosition" x="18101" y="4070"><tspan fill="rgb(0,0,0)" stroke="none">executing query</tspan></tspan></tspan></text>
 <text class="TextShape"><tspan class="TextParagraph" font-family="LM Mono Light 10, monospace" font-size="353px" font-weight="400"><tspan class="TextPosition" x="18101" y="4620"><tspan fill="rgb(0,0,0)" stroke="none">preprocess</tspan></tspan></tspan></text>
 <text class="TextShape"><tspan class="TextParagraph" font-family="LM Mono Light 10, monospace" font-size="353px" font-weight="400"><tspan class="TextPosition" x="18101" y="5171"><tspan fill="rgb(0,0,0)" stroke="none">creating data structures</tspan></tspan></tspan></text>
</svg>