<?xml version="1.0" encoding="UTF-8"?>
<!DOCTYPE svg PUBLIC "-//W3C//DTD SVG 1.1//EN" "http://www.w3.org/Graphics/SVG/1.1/DTD/svg11.dtd">
<svg width="160mm" height="90mm" viewBox="0 0 16000 9000" version="1.1" xmlns="http://www.w3.org/2000/svg" stroke-width="28.222" stroke-linejoin="round" xml:space="preserve">
 <path fill="rgb(255,255,255)" stroke="none" d="M 8105,8996 L 109,8996 109,0 16100,0 16100,8996 8105,8996 Z"/>
 <path fill="none" stroke="rgb(179,179,179)" stroke-linejoin="round" d="M 7747,5394 L 2161,5394 2161,1194 13333,1194 13333,5394 7747,5394 Z"/>
 <path fill="none" stroke="rgb(179,179,179)" stroke-linejoin="round" d="M 13332,5393 L 2161,5393"/>
 <path fill="none" stroke="rgb(179,179,179)" stroke-linejoin="round" d="M 13332,4692 L 2161,4692"/>
 <path fill="none" stroke="rgb(179,179,179)" stroke-linejoin="round" d="M 13332,3993 L 2161,3993"/>
 <path fill="none" stroke="rgb(179,179,179)" stroke-linejoin="round" d="M 13332,3293 L 2161,3293"/>
 <path fill="none" stroke="rgb(179,179,179)" stroke-linejoin="round" d="M 13332,2593 L 2161,2593"/>
 <path fill="none" stroke="rgb(179,179,179)" stroke-linejoin="round" d="M 13332,1893 L 2161,1893"/>
 <path fill="none" stroke="rgb(179,179,179)" stroke-linejoin="round" d="M 13332,1193 L 2161,1193"/>
 <path fill="none" stroke="rgb(179,179,179)" stroke-linejoin="round" d="M 2161,5543 L 2161,5393"/>
 <path fill="none" stroke="rgb(179,179,179)" stroke-linejoin="round" d="M 2161,5543 L 2161,5393"/>
 <path fill="none" stroke="rgb(179,179,179)" stroke-linejoin="round" d="M 4395,5543 L 4395,5393"/>
 <path fill="none" stroke="rgb(179,179,179)" stroke-linejoin="round" d="M 4395,5543 L 4395,5393"/>
 <path fill="none" stroke="rgb(179,179,179)" stroke-linejoin="round" d="M 6630,5543 L 6630,5393"/>
 <path fill="none" stroke="rgb(179,179,179)" stroke-linejoin="round" d="M 6630,5543 L 6630,5393"/>
 <path fill="none" stroke="rgb(179,179,179)" stroke-linejoin="round" d="M 8863,5543 L 8863,5393"/>
 <path fill="none" stroke="rgb(179,179,179)" stroke-linejoin="round" d="M 8863,5543 L 8863,5393"/>
 <path fill="none" stroke="rgb(179,179,179)" stroke-linejoin="round" d="M 11098,5543 L 11098,5393"/>
 <path fill="none" stroke="rgb(179,179,179)" stroke-linejoin="round" d="M 11098,5543 L 11098,5393"/>
 <path fill="none" stroke="rgb(179,179,179)" stroke-linejoin="round" d="M 13332,5543 L 13332,5393"/>
 <path fill="none" stroke="rgb(179,179,179)" stroke-linejoin="round" d="M 13332,5543 L 13332,5393"/>
 <path fill="none" stroke="rgb(179,179,179)" stroke-linejoin="round" d="M 2161,5393 L 13332,5393"/>
 <path fill="none" stroke="rgb(179,179,179)" stroke-linejoin="round" d="M 2011,5393 L 2161,5393"/>
 <path fill="none" stroke="rgb(179,179,179)" stroke-linejoin="round" d="M 2011,5393 L 2161,5393"/>
 <path fill="none" stroke="rgb(179,179,179)" stroke-linejoin="round" d="M 2011,4692 L 2161,4692"/>
 <path fill="none" stroke="rgb(179,179,179)" stroke-linejoin="round" d="M 2011,4692 L 2161,4692"/>
 <path fill="none" stroke="rgb(179,179,179)" stroke-linejoin="round" d="M 2011,3993 L 2161,3993"/>
 <path fill="none" stroke="rgb(179,179,179)" stroke-linejoin="round" d="M 2011,3993 L 2161,3993"/>
 <path fill="none" stroke="rgb(179,179,179)" stroke-linejoin="round" d="M 2011,3293 L 2161,3293"/>
 <path fill="none" stroke="rgb(179,179,179)" stroke-linejoin="round" d="M 2011,3293 L 2161,3293"/>
 <path fill="none" stroke="rgb(179,179,179)" stroke-linejoin="round" d="M 2011,2593 L 2161,2593"/>
 <path fill="none" stroke="rgb(179,179,179)" stroke-linejoin="round" d="M 2011,2593 L 2161,2593"/>
 <path fill="none" stroke="rgb(179,179,179)" stroke-linejoin="round" d="M 2011,1893 L 2161,1893"/>
 <path fill="none" stroke="rgb(179,179,179)" stroke-linejoin="round" d="M 2011,1893 L 2161,1893"/>
 <path fill="none" stroke="rgb(179,179,179)" stroke-linejoin="round" d="M 2011,1193 L 2161,1193"/>
 <path fill="none" stroke="rgb(179,179,179)" stroke-linejoin="round" d="M 2011,1193 L 2161,1193"/>
 <path fill="none" stroke="rgb(179,179,179)" stroke-linejoin="round" d="M 2161,5393 L 2161,1193"/>
 <path fill="rgb(0,69,134)" stroke="none" d="M 11657,5393 L 12774,5393 12774,1571 11657,1571 11657,5393 Z"/>
 <path fill="rgb(0,69,134)" stroke="none" d="M 9422,5393 L 10539,5393 10539,2803 9422,2803 9422,5393 Z"/>
 <path fill="rgb(0,69,134)" stroke="none" d="M 7188,5393 L 8305,5393 8305,1767 7188,1767 7188,5393 Z"/>
 <path fill="rgb(0,69,134)" stroke="none" d="M 4954,5393 L 6071,5393 6071,4343 4954,4343 4954,5393 Z"/>
 <path fill="rgb(0,69,134)" stroke="none" d="M 2719,5393 L 3836,5393 3836,4343 2719,4343 2719,5393 Z"/>
 <text class="TextShape" transform="translate(1761,7383) rotate(-44.9) translate(-1761,-7383)"><tspan class="TextParagraph" font-family="Liberation Sans, sans-serif" font-size="353px" font-weight="400"><tspan class="TextPosition" x="1761" y="7383"><tspan fill="rgb(0,0,0)" stroke="none">linear_iteration</tspan></tspan></tspan></text>
 <text class="TextShape" transform="translate(2778,8599) rotate(-44.9) translate(-2778,-8599)"><tspan class="TextParagraph" font-family="Liberation Sans, sans-serif" font-size="353px" font-weight="400"><tspan class="TextPosition" x="2778" y="8599"><tspan fill="rgb(0,0,0)" stroke="none">linear_iteration_with_save</tspan></tspan></tspan></text>
 <text class="TextShape" transform="translate(6155,7457) rotate(-44.9) translate(-6155,-7457)"><tspan class="TextParagraph" font-family="Liberation Sans, sans-serif" font-size="353px" font-weight="400"><tspan class="TextPosition" x="6155" y="7457"><tspan fill="rgb(0,0,0)" stroke="none">simple_random</tspan></tspan></tspan></text>
 <text class="TextShape" transform="translate(8802,7046) rotate(-44.9) translate(-8802,-7046)"><tspan class="TextParagraph" font-family="Liberation Sans, sans-serif" font-size="353px" font-weight="400"><tspan class="TextPosition" x="8802" y="7046"><tspan fill="rgb(0,0,0)" stroke="none">simple_hist</tspan></tspan></tspan></text>
 <text class="TextShape" transform="translate(10754,7327) rotate(-44.9) translate(-10754,-7327)"><tspan class="TextParagraph" font-family="Liberation Sans, sans-serif" font-size="353px" font-weight="400"><tspan class="TextPosition" x="10754" y="7327"><tspan fill="rgb(0,0,0)" stroke="none">enhanced hist</tspan></tspan></tspan></text>
 <text class="TextShape"><tspan class="TextParagraph" font-family="Liberation Sans, sans-serif" font-size="353px" font-weight="400"><tspan class="TextPosition" x="429" y="5473"><tspan fill="rgb(0,0,0)" stroke="none">0.00E+00</tspan></tspan></tspan></text>
 <text class="TextShape"><tspan class="TextParagraph" font-family="Liberation Sans, sans-serif" font-size="353px" font-weight="400"><tspan class="TextPosition" x="429" y="4772"><tspan fill="rgb(0,0,0)" stroke="none">5.00E+07</tspan></tspan></tspan></text>
 <text class="TextShape"><tspan class="TextParagraph" font-family="Liberation Sans, sans-serif" font-size="353px" font-weight="400"><tspan class="TextPosition" x="429" y="4072"><tspan fill="rgb(0,0,0)" stroke="none">1.00E+08</tspan></tspan></tspan></text>
 <text class="TextShape"><tspan class="TextParagraph" font-family="Liberation Sans, sans-serif" font-size="353px" font-weight="400"><tspan class="TextPosition" x="429" y="3372"><tspan fill="rgb(0,0,0)" stroke="none">1.50E+08</tspan></tspan></tspan></text>
 <text class="TextShape"><tspan class="TextParagraph" font-family="Liberation Sans, sans-serif" font-size="353px" font-weight="400"><tspan class="TextPosition" x="429" y="2672"><tspan fill="rgb(0,0,0)" stroke="none">2.00E+08</tspan></tspan></tspan></text>
 <text class="TextShape"><tspan class="TextParagraph" font-family="Liberation Sans, sans-serif" font-size="353px" font-weight="400"><tspan class="TextPosition" x="429" y="1972"><tspan fill="rgb(0,0,0)" stroke="none">2.50E+08</tspan></tspan></tspan></text>
 <text class="TextShape"><tspan class="TextParagraph" font-family="Liberation Sans, sans-serif" font-size="353px" font-weight="400"><tspan class="TextPosition" x="429" y="1272"><tspan fill="rgb(0,0,0)" stroke="none">3.00E+08</tspan></tspan></tspan></text>
 <text class="TextShape"><tspan class="TextParagraph" font-family="Liberation Sans, sans-serif" font-size="459px" font-weight="400"><tspan class="TextPosition" x="5049" y="770"><tspan fill="rgb(0,0,0)" stroke="none">Query output (scale factor = 1)</tspan></tspan></tspan></text>
 <path fill="rgb(0,69,134)" stroke="none" d="M 13874,4602 L 13768,4602 13768,4392 13979,4392 13979,4602 13874,4602 Z"/>
 <text class="TextShape"><tspan class="TextParagraph" font-family="Liberation Sans, sans-serif" font-size="353px" font-weight="400"><tspan class="TextPosition" x="14079" y="4575"><tspan fill="rgb(0,0,0)" stroke="none">final output</tspan></tspan></tspan></text>
</svg>