<?xml version="1.0" encoding="UTF-8"?>
<!DOCTYPE svg PUBLIC "-//W3C//DTD SVG 1.1//EN" "http://www.w3.org/Graphics/SVG/1.1/DTD/svg11.dtd">
<svg width="217mm" height="122mm" viewBox="0 0 21700 12200" version="1.1" xmlns="http://www.w3.org/2000/svg" stroke-width="28.222" stroke-linejoin="round" xml:space="preserve">
 <path fill="rgb(255,255,255)" stroke="none" d="M 10804,12180 L -23,12180 -23,0 21631,0 21631,12180 10804,12180 Z"/>
 <path fill="none" stroke="rgb(179,179,179)" stroke-linejoin="round" d="M 9167,11369 L 2176,11369 2176,1561 16157,1561 16157,11369 9167,11369 Z"/>
 <path fill="none" stroke="rgb(179,179,179)" stroke-linejoin="round" d="M 16157,11368 L 2176,11368"/>
 <path fill="none" stroke="rgb(179,179,179)" stroke-linejoin="round" d="M 16157,9733 L 2176,9733"/>
 <path fill="none" stroke="rgb(179,179,179)" stroke-linejoin="round" d="M 16157,8098 L 2176,8098"/>
 <path fill="none" stroke="rgb(179,179,179)" stroke-linejoin="round" d="M 16157,6463 L 2176,6463"/>
 <path fill="none" stroke="rgb(179,179,179)" stroke-linejoin="round" d="M 16157,4829 L 2176,4829"/>
 <path fill="none" stroke="rgb(179,179,179)" stroke-linejoin="round" d="M 16157,3194 L 2176,3194"/>
 <path fill="none" stroke="rgb(179,179,179)" stroke-linejoin="round" d="M 16157,1560 L 2176,1560"/>
 <path fill="none" stroke="rgb(179,179,179)" stroke-linejoin="round" d="M 2176,11518 L 2176,11368"/>
 <path fill="none" stroke="rgb(179,179,179)" stroke-linejoin="round" d="M 2176,11518 L 2176,11368"/>
 <path fill="none" stroke="rgb(179,179,179)" stroke-linejoin="round" d="M 6836,11518 L 6836,11368"/>
 <path fill="none" stroke="rgb(179,179,179)" stroke-linejoin="round" d="M 6836,11518 L 6836,11368"/>
 <path fill="none" stroke="rgb(179,179,179)" stroke-linejoin="round" d="M 11496,11518 L 11496,11368"/>
 <path fill="none" stroke="rgb(179,179,179)" stroke-linejoin="round" d="M 11496,11518 L 11496,11368"/>
 <path fill="none" stroke="rgb(179,179,179)" stroke-linejoin="round" d="M 16157,11518 L 16157,11368"/>
 <path fill="none" stroke="rgb(179,179,179)" stroke-linejoin="round" d="M 16157,11518 L 16157,11368"/>
 <path fill="none" stroke="rgb(179,179,179)" stroke-linejoin="round" d="M 2176,11368 L 16157,11368"/>
 <path fill="none" stroke="rgb(179,179,179)" stroke-linejoin="round" d="M 2026,11368 L 2176,11368"/>
 <path fill="none" stroke="rgb(179,179,179)" stroke-linejoin="round" d="M 2026,11368 L 2176,11368"/>
 <path fill="none" stroke="rgb(179,179,179)" stroke-linejoin="round" d="M 2026,9733 L 2176,9733"/>
 <path fill="none" stroke="rgb(179,179,179)" stroke-linejoin="round" d="M 2026,9733 L 2176,9733"/>
 <path fill="none" stroke="rgb(179,179,179)" stroke-linejoin="round" d="M 2026,8098 L 2176,8098"/>
 <path fill="none" stroke="rgb(179,179,179)" stroke-linejoin="round" d="M 2026,8098 L 2176,8098"/>
 <path fill="none" stroke="rgb(179,179,179)" stroke-linejoin="round" d="M 2026,6463 L 2176,6463"/>
 <path fill="none" stroke="rgb(179,179,179)" stroke-linejoin="round" d="M 2026,6463 L 2176,6463"/>
 <path fill="none" stroke="rgb(179,179,179)" stroke-linejoin="round" d="M 2026,4829 L 2176,4829"/>
 <path fill="none" stroke="rgb(179,179,179)" stroke-linejoin="round" d="M 2026,4829 L 2176,4829"/>
 <path fill="none" stroke="rgb(179,179,179)" stroke-linejoin="round" d="M 2026,3194 L 2176,3194"/>
 <path fill="none" stroke="rgb(179,179,179)" stroke-linejoin="round" d="M 2026,3194 L 2176,3194"/>
 <path fill="none" stroke="rgb(179,179,179)" stroke-linejoin="round" d="M 2026,1560 L 2176,1560"/>
 <path fill="none" stroke="rgb(179,179,179)" stroke-linejoin="round" d="M 2026,1560 L 2176,1560"/>
 <path fill="none" stroke="rgb(179,179,179)" stroke-linejoin="round" d="M 2176,11368 L 2176,1560"/>
 <path fill="rgb(0,69,134)" stroke="none" d="M 11884,11368 L 12661,11368 12661,6169 11884,6169 11884,11368 Z"/>
 <path fill="rgb(255,66,14)" stroke="none" d="M 12661,11368 L 13438,11368 13438,11318 12661,11318 12661,11368 Z"/>
 <path fill="rgb(255,66,14)" stroke="none" d="M 3341,11368 L 4117,11368 4117,3701 3341,3701 3341,11368 Z"/>
 <path fill="rgb(255,211,32)" stroke="none" d="M 13438,11368 L 14215,11368 14215,11153 13438,11153 13438,11368 Z"/>
 <path fill="rgb(255,211,32)" stroke="none" d="M 4117,11368 L 4894,11368 4894,4012 4117,4012 4117,11368 Z"/>
 <path fill="rgb(87,157,28)" stroke="none" d="M 14215,11368 L 14991,11368 14991,5034 14215,5034 14215,11368 Z"/>
 <path fill="rgb(87,157,28)" stroke="none" d="M 9555,11368 L 10332,11368 10332,3064 9555,3064 9555,11368 Z"/>
 <path fill="rgb(87,157,28)" stroke="none" d="M 4894,11368 L 5671,11368 5671,4167 4894,4167 4894,11368 Z"/>
 <path fill="rgb(126,0,33)" stroke="none" d="M 14991,11368 L 15768,11368 15768,11343 14991,11343 14991,11368 Z"/>
 <path fill="rgb(126,0,33)" stroke="none" d="M 10332,11368 L 11107,11368 11107,2977 10332,2977 10332,11368 Z"/>
 <path fill="rgb(126,0,33)" stroke="none" d="M 5671,11368 L 6448,11368 6448,4036 5671,4036 5671,11368 Z"/>
 <text class="TextShape"><tspan class="TextParagraph" font-family="Liberation Sans, sans-serif" font-size="353px" font-weight="400"><tspan class="TextPosition" x="2693" y="11856"><tspan fill="rgb(0,0,0)" stroke="none">creating data structures</tspan></tspan></tspan></text>
 <text class="TextShape"><tspan class="TextParagraph" font-family="Liberation Sans, sans-serif" font-size="353px" font-weight="400"><tspan class="TextPosition" x="8320" y="11856"><tspan fill="rgb(0,0,0)" stroke="none">preprocess</tspan></tspan></tspan></text>
 <text class="TextShape"><tspan class="TextParagraph" font-family="Liberation Sans, sans-serif" font-size="353px" font-weight="400"><tspan class="TextPosition" x="12610" y="11856"><tspan fill="rgb(0,0,0)" stroke="none">executing query</tspan></tspan></tspan></text>
 <text class="TextShape"><tspan class="TextParagraph" font-family="Liberation Sans, sans-serif" font-size="353px" font-weight="400"><tspan class="TextPosition" x="1741" y="11448"><tspan fill="rgb(0,0,0)" stroke="none">0</tspan></tspan></tspan></text>
 <text class="TextShape"><tspan class="TextParagraph" font-family="Liberation Sans, sans-serif" font-size="353px" font-weight="400"><tspan class="TextPosition" x="1556" y="9813"><tspan fill="rgb(0,0,0)" stroke="none">20</tspan></tspan></tspan></text>
 <text class="TextShape"><tspan class="TextParagraph" font-family="Liberation Sans, sans-serif" font-size="353px" font-weight="400"><tspan class="TextPosition" x="1556" y="8178"><tspan fill="rgb(0,0,0)" stroke="none">40</tspan></tspan></tspan></text>
 <text class="TextShape"><tspan class="TextParagraph" font-family="Liberation Sans, sans-serif" font-size="353px" font-weight="400"><tspan class="TextPosition" x="1556" y="6543"><tspan fill="rgb(0,0,0)" stroke="none">60</tspan></tspan></tspan></text>
 <text class="TextShape"><tspan class="TextParagraph" font-family="Liberation Sans, sans-serif" font-size="353px" font-weight="400"><tspan class="TextPosition" x="1556" y="4908"><tspan fill="rgb(0,0,0)" stroke="none">80</tspan></tspan></tspan></text>
 <text class="TextShape"><tspan class="TextParagraph" font-family="Liberation Sans, sans-serif" font-size="353px" font-weight="400"><tspan class="TextPosition" x="1370" y="3273"><tspan fill="rgb(0,0,0)" stroke="none">100</tspan></tspan></tspan></text>
 <text class="TextShape"><tspan class="TextParagraph" font-family="Liberation Sans, sans-serif" font-size="353px" font-weight="400"><tspan class="TextPosition" x="1370" y="1639"><tspan fill="rgb(0,0,0)" stroke="none">120</tspan></tspan></tspan></text>
 <text class="TextShape"><tspan class="TextParagraph" font-family="Linux Libertine O" font-size="459px" font-weight="400"><tspan class="TextPosition" x="7668" y="914"><tspan fill="rgb(0,0,0)" stroke="none">Execution times for scale factor 10</tspan></tspan></tspan></text>
 <path fill="rgb(0,69,134)" stroke="none" d="M 16812,5199 L 16706,5199 16706,4988 16917,4988 16917,5199 16812,5199 Z"/>
 <path fill="rgb(255,66,14)" stroke="none" d="M 16812,5697 L 16706,5697 16706,5486 16917,5486 16917,5697 16812,5697 Z"/>
 <path fill="rgb(255,211,32)" stroke="none" d="M 16812,6194 L 16706,6194 16706,5984 16917,5984 16917,6194 16812,6194 Z"/>
 <path fill="rgb(87,157,28)" stroke="none" d="M 16812,6692 L 16706,6692 16706,6481 16917,6481 16917,6692 16812,6692 Z"/>
 <path fill="rgb(126,0,33)" stroke="none" d="M 16812,7190 L 16706,7190 16706,6979 16917,6979 16917,7190 16812,7190 Z"/>
 <text class="TextShape"><tspan class="TextParagraph" font-family="Linux Libertine O" font-size="353px" font-weight="400"><tspan class="TextPosition" x="17017" y="5213"><tspan fill="rgb(0,0,0)" stroke="none">linear_iteration_without_save</tspan></tspan></tspan></text>
 <text class="TextShape"><tspan class="TextParagraph" font-family="Linux Libertine O" font-size="353px" font-weight="400"><tspan class="TextPosition" x="17017" y="5711"><tspan fill="rgb(0,0,0)" stroke="none">linear_iteration_with_save</tspan></tspan></tspan></text>
 <text class="TextShape"><tspan class="TextParagraph" font-family="Linux Libertine O" font-size="353px" font-weight="400"><tspan class="TextPosition" x="17017" y="6208"><tspan fill="rgb(0,0,0)" stroke="none">simple_random</tspan></tspan></tspan></text>
 <text class="TextShape"><tspan class="TextParagraph" font-family="Linux Libertine O" font-size="353px" font-weight="400"><tspan class="TextPosition" x="17017" y="6706"><tspan fill="rgb(0,0,0)" stroke="none">simple_hist</tspan></tspan></tspan></text>
 <text class="TextShape"><tspan class="TextParagraph" font-family="Linux Libertine O" font-size="353px" font-weight="400"><tspan class="TextPosition" x="17017" y="7204"><tspan fill="rgb(0,0,0)" stroke="none">enhanced hist</tspan></tspan></tspan></text>
 <text class="TextShape" transform="translate(761,7158) rotate(-90) translate(-761,-7158)"><tspan class="TextParagraph" font-family="Liberation Sans, sans-serif" font-size="318px" font-weight="400"><tspan class="TextPosition" x="761" y="7158"><tspan fill="rgb(0,0,0)" stroke="none">time(s)</tspan></tspan></tspan></text>
</svg>